# xmcd CD database file
#
# Track frame offsets:
#	150
#	13667
#	27318
#	41127
#	49758
#	60490
#	75806
#	87520
#	98071
#	110080
#	128038
#	138576
#	148804
#	164655
#	178571
#	208462
#	220145
#	230833
#	245203
#	259011
#	276254
#	290803
#
# Disc length: 4106 seconds
#
# Revision: 0
# Processed by: cddbd v1.5.2PL0 Copyright (c) Steve Scherf et al.
# Submitted via: CDex 1.70beta1
#
DISCID=5a100816
DTITLE=Waldemar Matuska - Sbohem, lasko... ZLATA KOLEKCE [CD3 Namornicke, trampske a lidove pisnicky)
DYEAR=2009
DGENRE=Country
TTITLE0=Korzar
TTITLE1=Tropicana
TTITLE2=Hrisnik a flama
TTITLE3=Tuhle runde platim ja
TTITLE4=Santiago
TTITLE5=Kotva na pridi
TTITLE6=Namornickej bal
TTITLE7=Az se ma lod zpatky vrati
TTITLE8=More huci
TTITLE9=Cesta morem
TTITLE10=Marinak
TTITLE11=O hrebicku zahradnicky
TTITLE12=Prstynek z lasky
TTITLE13=Kdyz jsem ja slouzil
TTITLE14=Smes lidovych pisni
TTITLE15=Zdalo se mne ma panenko
TTITLE16=Ja se touhle cestou dam
TTITLE17=Mym domovem ztichla je putyka
TTITLE18=Rikatado
TTITLE19=Niagara
TTITLE20=Libam Te dnes naposledy
TTITLE21=Hory cierne
EXTD=YEAR: 2009
EXTT0=
EXTT1=
EXTT2=
EXTT3=
EXTT4=
EXTT5=
EXTT6=
EXTT7=
EXTT8=
EXTT9=
EXTT10=
EXTT11=
EXTT12=
EXTT13=
EXTT14=
EXTT15=
EXTT16=
EXTT17=
EXTT18=
EXTT19=
EXTT20=
EXTT21=
PLAYORDER=
